<svg version="1.1" id="Layer_1" xmlns="http://www.w3.org/2000/svg" xmlns:xlink="http://www.w3.org/1999/xlink" x="0px" y="0px"
	 width="100%" viewBox="0 0 198 196" enable-background="new 0 0 198 196" xml:space="preserve">
<path fill="#FEFEFE" opacity="1.000000" stroke="none" 
	d="
M29.000000,1.000000 
	C85.632538,1.000000 142.265076,1.000000 198.948807,1.000000 
	C198.948807,66.259819 198.948807,131.519684 198.948807,196.889771 
	C133.113403,196.889771 67.226547,196.889771 1.000000,196.889771 
	C1.000000,142.979584 1.000000,88.958450 1.276215,34.713852 
	C1.700779,35.125751 1.755632,35.801888 2.012145,36.390076 
	C4.229963,41.475571 4.894596,47.818127 12.036509,48.962517 
	C12.018381,48.969936 12.035933,48.941074 12.057790,49.322456 
	C12.436816,51.193348 12.793985,52.682858 13.106483,54.097321 
	C13.061810,54.022274 13.188017,54.143032 12.821559,54.126976 
	C11.224164,55.351177 9.757798,56.433186 8.800469,57.857361 
	C2.555574,67.147659 3.712273,77.707458 4.254789,87.994347 
	C4.393296,90.620644 6.939333,93.119965 8.371676,95.701691 
	C8.364116,95.725746 8.320262,95.750656 8.214468,96.152817 
	C8.759422,100.802063 9.762232,104.841614 14.129372,106.923187 
	C14.072886,106.981644 14.145329,106.836098 14.097528,107.213455 
	C15.051056,108.716164 16.052387,109.841522 17.025528,110.980240 
	C16.997339,110.993614 17.030798,110.940918 17.095308,111.175163 
	C17.319088,111.709381 17.557137,111.920547 17.915714,112.045425 
	C17.957460,112.047935 17.933414,112.128044 17.949959,112.480530 
	C18.692383,113.521515 19.418259,114.210022 20.091143,114.941193 
	C20.038149,114.983864 20.109085,114.867744 20.072453,115.241615 
	C22.592453,120.939964 25.987499,125.373314 32.043377,126.968384 
	C32.010529,126.993156 32.040443,126.916504 32.139587,127.165627 
	C32.544868,127.579559 32.851006,127.744362 33.106754,127.918839 
	C33.056366,127.928497 33.112999,127.842926 33.108902,128.216583 
	C34.436405,129.367966 35.768002,130.145721 37.053558,130.951401 
	C37.007519,130.979324 37.071045,130.892365 37.079102,131.258453 
	C39.080074,132.730347 41.072990,133.836151 43.036285,134.972595 
	C43.006664,135.003235 43.054218,134.933670 43.099777,135.309875 
	C44.226299,136.070312 45.307262,136.454544 46.572502,136.854874 
	C46.756779,136.870972 47.008072,137.142487 47.149529,137.353973 
	C47.601704,137.681778 47.912422,137.798126 48.494728,137.946747 
	C49.185207,138.299881 49.604107,138.620728 50.080536,139.320251 
	C51.240700,140.074326 52.343334,140.449677 53.617180,140.834320 
	C53.788387,140.843597 54.008354,141.106674 54.163010,141.328339 
	C54.652493,141.659012 54.987324,141.768005 55.519367,141.887848 
	C55.716579,141.898697 56.011841,142.161118 56.159126,142.368637 
	C56.620228,142.683792 56.934044,142.791428 57.464294,142.920502 
	C57.680725,142.941971 58.013386,143.222244 58.150726,143.418640 
	C58.537701,143.843948 58.831711,143.951004 59.448975,143.957657 
	C60.163788,144.292587 60.599724,144.606110 61.082870,145.283569 
	C62.413651,146.102020 63.697224,146.556519 64.989120,147.004486 
	C64.997444,146.997955 64.992149,147.016083 65.053947,147.374298 
	C66.154724,148.077637 67.193695,148.422791 68.123657,148.812042 
	C68.014648,148.856140 68.211227,148.727036 68.199280,149.114670 
	C69.506256,149.960648 70.825172,150.418991 72.085999,150.916199 
	C72.027901,150.955063 72.107346,150.840042 72.129303,151.213409 
	C73.440895,152.052902 74.730537,152.519028 76.010818,152.993179 
	C76.001465,153.001221 76.012085,152.980957 76.065567,153.339859 
	C77.145790,154.072052 78.172539,154.445343 79.116821,154.862030 
	C79.034355,154.905411 79.167892,154.775421 79.143501,155.090851 
	C79.762604,155.559753 80.406105,155.713226 81.340332,155.913422 
	C82.087822,156.305588 82.544586,156.651047 83.157593,157.240158 
	C83.668846,157.609222 84.023842,157.734634 84.565704,157.875977 
	C84.752563,157.891907 85.010353,158.164352 85.135712,158.366150 
	C85.494827,158.810989 85.780312,158.931534 86.075081,158.953522 
	C86.032631,158.977478 86.071701,158.888168 86.100464,159.252838 
	C87.137535,160.035904 88.145859,160.454315 89.095490,160.911896 
	C89.036797,160.951065 89.114807,160.833466 89.127815,161.200745 
	C90.136559,162.011520 91.132294,162.455002 92.077431,162.935425 
	C92.026825,162.972382 92.090981,162.864731 92.108765,163.222687 
	C93.090454,164.050385 94.054352,164.520126 95.009155,164.995575 
	C95.000046,165.001282 95.006630,164.981277 95.133331,165.221832 
	C95.579163,165.614960 95.898300,165.767517 96.426926,165.953766 
	C96.922821,166.107254 97.094437,166.319778 97.127464,166.994263 
	C100.124130,170.202667 103.144608,173.041779 106.104691,175.923492 
	C106.044289,175.966080 106.128113,175.844345 106.090080,176.215485 
	C106.736916,177.367935 107.421783,178.149277 108.058784,178.957062 
	C108.010925,178.983505 108.080322,178.898972 108.048294,179.319931 
	C108.387070,182.129684 106.704582,185.553070 111.334419,185.598480 
	C113.935699,175.226898 111.266922,166.131424 104.333893,159.047989 
	C96.830185,151.381516 88.368790,144.604248 79.992455,137.851791 
	C68.625648,128.688614 56.714249,120.192841 45.483894,110.871696 
	C39.071709,105.549622 34.169605,98.739975 31.728165,90.236885 
	C31.562597,89.635376 31.348125,89.323616 31.013248,88.772369 
	C30.855940,88.181114 30.819038,87.829330 30.862610,87.019760 
	C31.212637,80.568832 31.482191,74.575691 31.763483,68.413864 
	C31.775223,68.245171 31.997105,67.989929 32.258492,67.834427 
	C32.674309,67.112015 32.828739,66.545097 32.992531,65.987961 
	C33.001896,65.997726 32.977489,65.989929 33.226738,65.833084 
	C33.570656,65.308640 33.665321,64.941040 33.801254,64.406815 
	C33.842525,64.240204 34.093853,64.006355 34.321053,63.884632 
	C34.670174,63.452328 34.792095,63.141747 35.004684,62.542450 
	C35.756283,61.510426 36.417217,60.767113 37.301010,59.923264 
	C37.802917,59.614613 37.958725,59.337257 38.090176,58.763901 
	C38.393936,58.258568 38.664795,58.080162 39.236351,57.924885 
	C39.768467,57.663689 39.954502,57.400742 40.017975,57.028732 
	C40.006779,56.998470 40.057262,57.038696 40.408043,57.039738 
	C41.499329,56.350208 42.239834,55.659641 43.159718,54.736794 
	C43.882305,54.302635 44.425510,54.100754 45.131771,54.140839 
	C45.845848,53.900257 46.396866,53.417717 46.975006,52.965576 
	C47.002129,52.995972 46.944324,52.941177 47.335487,52.978077 
	C49.160732,52.393131 50.594807,51.771286 52.318169,51.021957 
	C53.227779,50.821877 53.848106,50.749283 54.970840,50.780178 
	C64.421852,51.525223 73.370453,52.166775 82.505051,52.823662 
	C82.691048,52.838993 82.993668,53.057487 83.066696,53.421131 
	C84.497383,54.145794 85.855049,54.506813 87.422836,54.908699 
	C87.632957,54.949562 87.984749,55.193577 88.095047,55.400242 
	C88.426437,55.857040 88.703926,55.983845 89.281235,56.037277 
	C89.524681,56.087231 89.982666,56.280373 90.095505,56.470421 
	C90.423904,56.889137 90.688812,57.002029 91.001534,56.999565 
	C91.000000,57.000000 91.000610,56.997318 91.048691,57.337822 
	C93.347626,59.453499 95.598488,61.228676 98.062675,63.172092 
	C99.403351,57.753632 96.882774,53.197968 91.956123,51.028351 
	C91.988571,51.000843 91.951401,51.077354 91.871483,50.825935 
	C91.496262,50.404461 91.200966,50.234406 90.945618,50.037685 
	C90.985580,50.011017 90.938919,50.095009 90.849472,49.841885 
	C90.449272,49.438866 90.138504,49.288971 89.911148,49.108231 
	C89.994560,49.077385 89.845848,49.174973 89.850670,48.815670 
	C88.897087,47.976574 87.938683,47.496780 86.990143,47.008339 
	C87.000000,46.999695 86.984901,47.020695 86.940926,46.668518 
	C85.901016,45.907703 84.905090,45.499062 83.946991,45.049019 
	C83.984833,45.007622 83.939178,45.110069 83.804131,44.828667 
	C83.094917,44.380180 82.520760,44.213100 81.967552,44.021358 
	C81.988510,43.996696 81.973869,44.059628 81.809570,43.788986 
	C81.053825,43.375401 80.462379,43.232452 79.648499,43.059921 
	C79.426071,43.030338 79.043396,42.795914 78.949478,42.436867 
	C77.724770,41.837467 76.593987,41.597111 75.205780,41.346176 
	C74.635658,41.197594 74.322960,41.059593 73.928680,40.553688 
	C65.128281,38.669079 56.409451,37.152374 47.972790,35.684757 
	C47.972790,33.179394 48.193321,30.047123 47.894802,26.965126 
	C47.697742,24.930607 46.754555,22.968357 46.032791,20.723225 
	C45.868309,20.112066 45.816475,19.751432 45.791710,19.115162 
	C45.598972,18.557800 45.379169,18.276077 45.058983,17.788898 
	C44.958599,17.583441 44.927563,17.127161 44.956993,16.807560 
	C44.627392,16.009573 44.268364,15.531187 43.955154,15.032881 
	C44.000973,15.012959 43.922256,15.074862 43.957226,14.715680 
	C43.321747,13.574493 42.651299,12.792489 41.708141,11.833857 
	C39.962189,10.090020 38.488945,8.522809 36.895340,6.718071 
	C36.456558,6.350208 36.138130,6.219872 35.550537,6.036530 
	C34.847942,5.664678 34.414516,5.345831 33.819389,4.756330 
	C33.067204,4.345244 32.476715,4.204813 31.661646,4.052953 
	C31.437065,4.041524 31.032566,3.844930 30.978825,3.543282 
	C30.286047,2.845928 29.647009,2.450222 29.005421,1.790891 
	C29.001913,1.351511 29.000956,1.175755 29.000000,1.000000 
M133.127716,165.111679 
	C133.127716,165.111679 133.154495,165.280533 133.679916,165.060715 
	C133.835999,164.723267 133.992081,164.385803 134.057571,164.051910 
	C134.057571,164.051910 134.084656,164.138428 134.609924,163.850433 
	C134.894241,163.334534 135.178558,162.818619 135.296951,162.244186 
	C135.296951,162.244186 135.357010,162.409546 135.912155,162.144302 
	C136.352478,161.462173 136.792801,160.780045 137.085541,160.073334 
	C137.085541,160.073334 137.095581,160.222641 137.616943,160.005081 
	C137.796753,159.682724 137.976578,159.360367 138.611069,158.882660 
	C138.887100,158.669083 139.018127,158.387924 139.530182,157.761017 
	C139.824997,157.253998 140.119812,156.746994 140.225662,156.150787 
	C140.225662,156.150787 140.209457,156.359131 140.795639,156.152847 
	C141.018234,155.809616 141.240845,155.466370 141.993210,154.728897 
	C143.156097,153.188538 144.163925,151.495361 145.506973,150.132553 
	C154.403717,141.104965 163.372391,132.148239 172.920731,122.896339 
	C176.385727,118.737747 179.740234,114.480904 183.335312,110.437981 
	C197.034103,95.032715 196.381134,71.646538 181.685974,57.137028 
	C180.483536,55.949772 178.802155,55.247559 176.519470,53.796143 
	C187.681808,49.651997 192.776138,43.199677 193.632355,33.574688 
	C194.539490,23.377146 188.304550,13.630466 179.253189,10.895707 
	C170.867661,8.362124 162.770630,12.014536 157.502380,20.892509 
	C153.688568,28.901449 153.504013,36.741570 158.721649,44.369228 
	C158.721649,44.369228 158.595871,44.412025 158.643692,44.772697 
	C158.643692,44.772697 158.932022,44.994576 158.837402,45.508236 
	C158.543716,45.685741 158.250015,45.863247 157.191818,45.735920 
	C142.663101,43.743790 128.522034,43.970604 115.978165,52.980690 
	C115.978165,52.980690 115.974815,52.904591 115.414467,53.012196 
	C115.167747,53.285683 114.921028,53.559174 114.026634,54.005718 
	C112.506203,55.300171 110.985771,56.594627 109.465340,57.889080 
	C109.687317,58.292366 109.909302,58.695648 110.131279,59.098934 
	C111.307770,58.928841 112.510590,58.862305 113.656242,58.570953 
	C118.976257,57.218025 124.205009,55.157787 129.603912,54.526382 
	C148.589645,52.305988 166.794968,59.372612 168.916275,80.771111 
	C169.164536,89.921249 165.228073,97.828094 160.437943,105.016830 
	C153.920761,114.797386 146.224014,123.782951 139.362350,133.345688 
	C133.481995,141.540848 127.853645,149.938370 122.568390,158.526138 
	C120.934174,161.181503 120.791092,164.754562 119.305321,168.306976 
	C116.259880,178.808121 116.098442,187.635178 118.868546,192.753036 
	C119.626007,190.516357 120.383469,188.279678 121.057037,186.040039 
	C121.057037,186.040039 121.075523,186.121933 121.613098,185.719330 
	C121.878883,184.869461 122.144661,184.019577 122.249947,183.137070 
	C122.249947,183.137070 122.303368,183.291885 122.810509,182.925140 
	C122.993874,182.330536 123.177246,181.735931 123.204391,181.110199 
	C123.204391,181.110199 123.242645,181.264832 123.793106,180.877533 
	C124.334915,179.653381 124.876724,178.429230 125.231743,177.153763 
	C125.231743,177.153763 125.263824,177.344788 125.771904,177.097397 
	C125.885979,176.743942 126.000046,176.390488 126.033302,176.036011 
	C126.033302,176.036011 126.066620,176.109634 126.604897,175.728943 
	C127.210983,174.569550 127.817078,173.410156 128.257141,172.175827 
	C128.257141,172.175827 128.271271,172.357422 128.782150,172.106979 
	C128.911499,171.755997 129.040848,171.404999 129.068054,171.058868 
	C129.068054,171.058868 129.100204,171.155960 129.627625,170.847641 
	C129.888153,170.302490 130.148697,169.757339 130.221878,169.159592 
	C130.221878,169.159592 130.251724,169.351883 130.768524,169.109756 
	C130.913101,168.763855 131.057678,168.417953 131.088364,168.074051 
	C131.088364,168.074051 131.125397,168.181763 131.657516,167.892059 
	C131.930908,167.361206 132.204300,166.830353 132.315231,166.209259 
	C132.315231,166.209259 132.329849,166.394531 132.845291,166.160080 
	C132.995773,165.819183 133.146255,165.478287 133.127716,165.111679 
M122.134430,135.676498 
	C128.755829,129.124680 130.322174,121.042984 128.916626,112.233421 
	C127.362686,102.493736 119.661285,94.946388 111.270515,94.578827 
	C102.275688,94.184799 94.507225,100.766312 92.004425,110.876671 
	C90.288063,117.810158 91.106522,124.438538 94.619308,130.635162 
	C100.674911,141.317368 111.717430,143.532669 122.134430,135.676498 
z"/>
<path fill="#E9FBFD" opacity="1.000000" stroke="none" 
	d="
M12.054637,48.955101 
	C4.894596,47.818127 4.229963,41.475571 2.012145,36.390076 
	C1.755632,35.801888 1.700779,35.125751 1.276215,34.245193 
	C1.000000,23.079512 1.000000,12.159021 1.000000,1.000000 
	C10.019496,1.000000 19.041090,1.000000 28.531342,1.000000 
	C29.000956,1.175755 29.001913,1.351511 29.012613,2.103163 
	C29.034338,2.887391 29.046320,3.095723 28.703224,3.294618 
	C27.891300,3.165899 27.434456,3.046617 26.725250,2.662098 
	C24.649813,2.623537 22.826736,2.850213 20.783001,3.191473 
	C20.234385,3.438830 19.910173,3.430245 19.285496,3.255715 
	C18.658508,3.454839 18.335732,3.678547 17.731689,4.070408 
	C16.068676,4.868681 14.686931,5.498802 13.023170,6.177026 
	C12.505479,6.510961 12.269801,6.796791 11.870562,7.352033 
	C10.459388,8.745376 9.211777,9.869308 7.735067,11.118285 
	C7.360381,11.550465 7.214792,11.857597 6.958305,12.500168 
	C-0.545692,25.813776 1.083970,37.117786 12.054637,48.955101 
z"/>
<path fill="#0BA9C9" opacity="1.000000" stroke="none" 
	d="
M12.036509,48.962517 
	C1.083970,37.117786 -0.545692,25.813776 7.190998,12.378006 
	C7.677780,11.611352 7.820972,11.302296 7.964164,10.993239 
	C9.211777,9.869308 10.459388,8.745376 12.141264,7.283853 
	C12.818747,6.673815 13.061965,6.401369 13.305183,6.128922 
	C14.686931,5.498802 16.068676,4.868681 18.030537,4.076725 
	C18.937004,3.703360 19.263355,3.491831 19.589706,3.280301 
	C19.910173,3.430245 20.234385,3.438830 21.209084,3.232250 
	C23.563091,3.081407 25.270351,3.004371 26.977613,2.927335 
	C27.434456,3.046617 27.891300,3.165899 28.911747,3.460376 
	C29.994423,3.705358 30.513494,3.775144 31.032566,3.844930 
	C31.032566,3.844930 31.437065,4.041524 31.846827,4.296016 
	C32.831421,4.709332 33.406258,4.868158 33.981091,5.026984 
	C34.414516,5.345831 34.847942,5.664678 35.669189,6.274944 
	C36.376572,6.696109 36.696136,6.825854 37.015697,6.955599 
	C38.488945,8.522809 39.962189,10.090020 41.753853,12.144021 
	C42.688934,13.445495 43.305595,14.260178 43.922256,15.074862 
	C43.922256,15.074862 44.000973,15.012959 43.963165,15.338211 
	C44.259426,16.151363 44.593494,16.639261 44.927563,17.127161 
	C44.927563,17.127161 44.958599,17.583441 45.035984,18.063911 
	C45.330460,18.826519 45.547550,19.108660 45.764641,19.390800 
	C45.816475,19.751432 45.868309,20.112066 45.985466,21.139297 
	C46.050785,27.271574 46.050785,32.737251 46.050785,37.321606 
	C55.195431,38.499046 64.602844,39.710323 74.010254,40.921597 
	C74.322960,41.059593 74.635658,41.197594 75.443756,41.580551 
	C76.973900,42.148979 78.008644,42.472446 79.043396,42.795914 
	C79.043396,42.795914 79.426071,43.030338 79.825150,43.312546 
	C80.807442,43.749714 81.390656,43.904671 81.973869,44.059628 
	C81.973869,44.059628 81.988510,43.996696 82.129562,44.273941 
	C82.826797,44.737480 83.382988,44.923775 83.939178,45.110069 
	C83.939178,45.110069 83.984833,45.007622 84.096252,45.325768 
	C85.133423,46.102840 86.059158,46.561768 86.984901,47.020695 
	C86.984901,47.020695 87.000000,46.999695 87.119019,47.290665 
	C88.107315,48.112751 88.976578,48.643864 89.845848,49.174973 
	C89.845848,49.174973 89.994560,49.077385 90.000534,49.358959 
	C90.317307,49.792027 90.628113,49.943520 90.938919,50.095009 
	C90.938919,50.095009 90.985580,50.011017 91.026779,50.288300 
	C91.362457,50.736172 91.656929,50.906765 91.951401,51.077354 
	C91.951401,51.077354 91.988571,51.000843 91.987152,51.388092 
	C93.112724,53.582634 94.239723,55.389927 95.939651,58.115993 
	C93.349174,57.529259 92.174896,57.263290 91.000610,56.997318 
	C91.000610,56.997318 91.000000,57.000000 90.913605,56.776550 
	C90.619316,56.234169 90.337799,56.143261 89.982666,56.280373 
	C89.982666,56.280373 89.524681,56.087231 89.185608,55.807999 
	C88.646339,55.193123 88.359077,55.081394 87.984749,55.193577 
	C87.984749,55.193577 87.632957,54.949562 87.221588,54.634087 
	C85.538033,53.898239 84.265846,53.477863 82.993668,53.057487 
	C82.993668,53.057487 82.691048,52.838993 82.238045,52.554718 
	C72.816254,49.395313 63.777737,47.715382 54.468430,50.676685 
	C53.848106,50.749283 53.227779,50.821877 51.967232,50.978672 
	C49.866112,51.688976 48.405220,52.315079 46.944324,52.941177 
	C46.944324,52.941177 47.002129,52.995972 46.679085,52.959305 
	C45.893600,53.248047 45.431156,53.573460 44.968712,53.898872 
	C44.425510,54.100754 43.882305,54.302635 42.846748,54.768715 
	C41.588684,55.701508 40.822975,56.370102 40.057262,57.038696 
	C40.057262,57.038696 40.006779,56.998470 39.761391,57.071030 
	C39.344551,57.429703 39.173096,57.715816 39.001637,58.001934 
	C38.664795,58.080162 38.393936,58.258568 37.842106,58.832306 
	C37.356152,59.426250 37.217152,59.725025 37.078152,60.023800 
	C36.417217,60.767113 35.756283,61.510426 34.769989,62.658104 
	C34.327705,63.377102 34.210777,63.691727 34.093853,64.006355 
	C34.093853,64.006355 33.842525,64.240204 33.561859,64.570404 
	C33.179958,65.263710 33.078724,65.626816 32.977489,65.989929 
	C32.977489,65.989929 33.001896,65.997726 32.739166,66.150894 
	C32.316662,66.866020 32.156883,67.427971 31.997105,67.989929 
	C31.997105,67.989929 31.775223,68.245171 31.501427,68.691879 
	C30.476583,72.402748 29.725534,75.666908 28.707584,79.229889 
	C28.316923,80.841187 28.007637,82.166542 28.097790,83.464157 
	C29.121254,98.195396 32.581841,112.249420 39.594398,125.363281 
	C41.050243,128.085785 41.856735,131.155533 42.637070,133.974487 
	C40.564777,132.886612 38.817909,131.889496 37.071045,130.892365 
	C37.071045,130.892365 37.007519,130.979324 36.915134,130.658905 
	C35.586166,129.506622 34.349583,128.674774 33.112999,127.842926 
	C33.112999,127.842926 33.056366,127.928497 33.016632,127.663345 
	C32.664745,127.237625 32.352592,127.077065 32.040443,126.916504 
	C32.040443,126.916504 32.010529,126.993156 31.910938,126.661499 
	C27.910593,122.509148 24.009838,118.688446 20.109085,114.867744 
	C20.109085,114.867744 20.038149,114.983864 20.021275,114.642166 
	C19.314072,113.576324 18.623743,112.852180 17.933414,112.128044 
	C17.933414,112.128044 17.957460,112.047935 17.884247,111.793533 
	C17.550957,111.339722 17.290878,111.140320 17.030800,110.940918 
	C17.030798,110.940918 16.997339,110.993614 16.971382,110.660477 
	C16.012058,109.163589 15.078694,107.999847 14.145330,106.836098 
	C14.145329,106.836098 14.072886,106.981644 14.061832,106.574646 
	C12.140607,102.695320 10.230435,99.222992 8.320263,95.750656 
	C8.320262,95.750656 8.364116,95.725746 8.336269,95.317200 
	C3.000801,80.490112 4.165130,66.846237 13.188017,54.143032 
	C13.188017,54.143032 13.061810,54.022274 13.397142,53.973621 
	C14.396737,53.083523 15.060999,52.242073 15.984694,51.071995 
	C14.486377,50.263439 13.261155,49.602257 12.035933,48.941074 
	C12.035933,48.941074 12.018381,48.969936 12.036509,48.962517 
z"/>
<path fill="#E71E69" opacity="1.000000" stroke="none" 
	d="
M158.011703,20.477322 
	C162.770630,12.014536 170.867661,8.362124 179.253189,10.895707 
	C188.304550,13.630466 194.539490,23.377146 193.632355,33.574688 
	C192.776138,43.199677 187.681808,49.651997 176.519470,53.796143 
	C178.802155,55.247559 180.483536,55.949772 181.685974,57.137028 
	C196.381134,71.646538 197.034103,95.032715 183.335312,110.437981 
	C179.740234,114.480904 176.385727,118.737747 172.281555,122.779305 
	C171.604141,120.406853 171.231415,118.097679 171.583771,115.905022 
	C173.412903,104.522629 173.700714,93.193352 170.893173,81.930443 
	C170.709991,81.195572 169.690491,80.669167 169.060013,80.045784 
	C166.794968,59.372612 148.589645,52.305988 129.603912,54.526382 
	C124.205009,55.157787 118.976257,57.218025 113.656242,58.570953 
	C112.510590,58.862305 111.307770,58.928841 110.131279,59.098934 
	C109.909302,58.695648 109.687317,58.292366 109.465340,57.889080 
	C110.985771,56.594627 112.506203,55.300171 114.635925,53.880962 
	C115.488411,53.472336 115.731613,53.188465 115.974815,52.904591 
	C115.974815,52.904591 115.978165,52.980690 116.324745,52.979134 
	C117.162201,52.920712 117.753212,53.022007 118.129333,52.783882 
	C127.909073,46.592258 138.810394,45.746365 149.960205,46.017479 
	C152.624207,46.082253 155.290878,46.035957 157.956329,46.040749 
	C158.250015,45.863247 158.543716,45.685741 159.060760,45.150982 
	C159.054703,44.666492 158.825287,44.539261 158.595871,44.412025 
	C158.595871,44.412025 158.721649,44.369228 158.758301,43.956909 
	C156.372742,36.768932 154.598022,29.980236 157.921478,22.938120 
	C158.243561,22.255672 157.995239,21.304014 158.011703,20.477322 
z"/>
<path fill="#0A798E" opacity="1.000000" stroke="none" 
	d="
M42.962494,134.065247 
	C41.856735,131.155533 41.050243,128.085785 39.594398,125.363281 
	C32.581841,112.249420 29.121254,98.195396 28.097790,83.464157 
	C28.007637,82.166542 28.316923,80.841187 28.783449,79.644676 
	C29.678188,82.332947 30.230160,84.905243 30.782135,87.477547 
	C30.819038,87.829330 30.855940,88.181114 30.984280,89.059135 
	C31.276896,89.899124 31.478077,90.212875 31.679260,90.526627 
	C34.169605,98.739975 39.071709,105.549622 45.483894,110.871696 
	C56.714249,120.192841 68.625648,128.688614 79.992455,137.851791 
	C88.368790,144.604248 96.830185,151.381516 104.333893,159.047989 
	C111.266922,166.131424 113.935699,175.226898 111.308853,185.243530 
	C110.073540,183.095215 109.076927,180.997101 108.080322,178.898972 
	C108.080322,178.898972 108.010925,178.983505 108.022011,178.640793 
	C107.398102,177.480164 106.763107,176.662262 106.128113,175.844345 
	C106.128113,175.844345 106.044289,175.966080 106.020248,175.595551 
	C103.047890,172.358353 100.099579,169.491684 97.151276,166.625000 
	C97.094437,166.319778 96.922821,166.107254 96.312019,165.702942 
	C95.660614,165.272720 95.333626,165.126999 95.006638,164.981262 
	C95.006630,164.981277 95.000046,165.001282 94.875061,164.713013 
	C93.863708,163.904739 92.977348,163.384735 92.090981,162.864731 
	C92.090981,162.864731 92.026825,162.972382 91.932404,162.655350 
	C90.930267,161.836700 90.022537,161.335083 89.114807,160.833466 
	C89.114807,160.833466 89.036797,160.951065 88.944328,160.633575 
	C87.925140,159.840118 86.998421,159.364136 86.071701,158.888168 
	C86.071701,158.888168 86.032631,158.977478 85.977310,158.722351 
	C85.618118,158.366272 85.314240,158.265305 85.010353,158.164337 
	C85.010353,158.164352 84.752563,157.891907 84.417343,157.624054 
	C83.721863,157.236298 83.361603,157.116409 83.001343,156.996521 
	C82.544586,156.651047 82.087822,156.305588 81.200027,155.661163 
	C80.235283,155.166611 79.701591,154.971008 79.167892,154.775421 
	C79.167892,154.775421 79.034355,154.905411 78.954956,154.587708 
	C77.921074,153.840317 76.966576,153.410645 76.012085,152.980957 
	C76.012085,152.980957 76.001465,153.001221 75.824799,152.724701 
	C74.467873,151.912140 73.287613,151.376083 72.107346,150.840042 
	C72.107346,150.840042 72.027901,150.955063 71.903854,150.642136 
	C70.590286,149.795151 69.400757,149.261093 68.211227,148.727036 
	C68.211227,148.727036 68.014648,148.856140 67.949333,148.545990 
	C66.920059,147.829269 65.956100,147.422684 64.992149,147.016083 
	C64.992149,147.016083 64.997444,146.997955 64.795273,146.742493 
	C63.407284,145.964554 62.221474,145.442093 61.035660,144.919632 
	C60.599724,144.606110 60.163788,144.292587 59.331112,143.736359 
	C58.627377,143.403168 58.320381,143.312714 58.013386,143.222244 
	C58.013386,143.222244 57.680725,142.941971 57.338821,142.687500 
	C56.668560,142.342377 56.340199,142.251755 56.011841,142.161118 
	C56.011841,142.161118 55.716579,141.898697 55.378807,141.649185 
	C54.696804,141.302002 54.352581,141.204346 54.008354,141.106674 
	C54.008354,141.106674 53.788387,140.843597 53.417110,140.562851 
	C52.038223,139.835251 51.030613,139.388412 50.023006,138.941559 
	C49.604107,138.620728 49.185207,138.299881 48.372295,137.712555 
	C47.654877,137.344864 47.331474,137.243683 47.008072,137.142487 
	C47.008072,137.142487 46.756779,136.870972 46.385574,136.578766 
	C45.027649,135.835587 44.040936,135.384628 43.054222,134.933670 
	C43.054218,134.933670 43.006664,135.003235 43.010452,134.753479 
	C43.014240,134.503708 42.962494,134.065247 42.962494,134.065247 
z"/>
<path fill="#B22257" opacity="1.000000" stroke="none" 
	d="
M168.988144,80.408447 
	C169.690491,80.669167 170.709991,81.195572 170.893173,81.930443 
	C173.700714,93.193352 173.412903,104.522629 171.583771,115.905022 
	C171.231415,118.097679 171.604141,120.406853 171.980011,122.915359 
	C163.372391,132.148239 154.403717,141.104965 145.506973,150.132553 
	C144.163925,151.495361 143.156097,153.188538 141.413452,155.005905 
	C140.625626,155.641647 140.417542,156.000397 140.209457,156.359131 
	C140.209457,156.359131 140.225662,156.150787 139.993408,156.243500 
	C139.508835,156.903885 139.256500,157.471542 139.004150,158.039200 
	C139.018127,158.387924 138.887100,158.669083 138.125488,159.072861 
	C137.458466,159.582932 137.277023,159.902786 137.095581,160.222641 
	C137.095581,160.222641 137.085541,160.073334 136.832581,160.165833 
	C136.172073,160.975403 135.764542,161.692474 135.357010,162.409546 
	C135.357010,162.409546 135.296951,162.244186 135.039581,162.303833 
	C134.549698,162.955139 134.317169,163.546783 134.084656,164.138428 
	C134.084656,164.138428 134.057571,164.051910 133.840210,164.162842 
	C133.466736,164.609344 133.310623,164.944946 133.154495,165.280533 
	C133.154495,165.280533 133.127716,165.111679 132.919159,165.210663 
	C132.583694,165.671280 132.456772,166.032913 132.329849,166.394531 
	C132.329849,166.394531 132.315231,166.209259 132.050217,166.288483 
	C131.565277,166.972382 131.345337,167.577072 131.125397,168.181763 
	C131.125397,168.181763 131.088364,168.074051 130.871735,168.183502 
	C130.520660,168.645920 130.386185,168.998901 130.251709,169.351883 
	C130.251724,169.351883 130.221878,169.159592 129.981750,169.255005 
	C129.527817,169.952255 129.314011,170.554108 129.100204,171.155960 
	C129.100204,171.155960 129.068054,171.058868 128.851929,171.175903 
	C128.514282,171.647766 128.392776,172.002594 128.271271,172.357422 
	C128.271271,172.357422 128.257141,172.175827 127.962891,172.247665 
	C127.134636,173.582870 126.600624,174.846252 126.066620,176.109634 
	C126.066620,176.109634 126.033302,176.036011 125.817612,176.164124 
	C125.489220,176.643082 125.376526,176.993942 125.263824,177.344788 
	C125.263824,177.344788 125.231743,177.153763 124.968620,177.259460 
	C124.217880,178.665039 123.730263,179.964935 123.242645,181.264832 
	C123.242645,181.264832 123.204391,181.110199 122.947662,181.235413 
	C122.561745,182.004379 122.432556,182.648132 122.303368,183.291885 
	C122.303368,183.291885 122.249947,183.137070 121.977707,183.261765 
	C121.495491,184.298279 121.285507,185.210114 121.075523,186.121933 
	C121.075523,186.121933 121.057037,186.040039 120.758881,186.126755 
	C119.971786,185.301636 119.037460,184.374924 119.067360,183.480438 
	C119.241043,178.285248 119.641510,173.097626 119.965294,167.907455 
	C120.791092,164.754562 120.934174,161.181503 122.568390,158.526138 
	C127.853645,149.938370 133.481995,141.540848 139.362350,133.345688 
	C146.224014,123.782951 153.920761,114.797386 160.437943,105.016830 
	C165.228073,97.828094 169.164536,89.921249 168.988144,80.408447 
z"/>
<path fill="#07788E" opacity="1.000000" stroke="none" 
	d="
M121.861336,135.914978 
	C111.717430,143.532669 100.674911,141.317368 94.619308,130.635162 
	C91.106522,124.438538 90.288063,117.810158 92.004425,110.876671 
	C94.507225,100.766312 102.275688,94.184799 111.270515,94.578827 
	C119.661285,94.946388 127.362686,102.493736 128.916626,112.233421 
	C130.322174,121.042984 128.755829,129.124680 121.861336,135.914978 
z"/>
<path fill="#E9FBFD" opacity="1.000000" stroke="none" 
	d="
M12.821559,54.126976 
	C4.165130,66.846237 3.000801,80.490112 8.343830,95.293144 
	C6.939333,93.119965 4.393296,90.620644 4.254789,87.994347 
	C3.712273,77.707458 2.555574,67.147659 8.800469,57.857361 
	C9.757798,56.433186 11.224164,55.351177 12.821559,54.126976 
z"/>
<path fill="#CEF8FB" opacity="1.000000" stroke="none" 
	d="
M73.928680,40.553688 
	C64.602844,39.710323 55.195431,38.499046 46.050785,37.321606 
	C46.050785,32.737251 46.050785,27.271574 46.098110,21.389824 
	C46.754555,22.968357 47.697742,24.930607 47.894802,26.965126 
	C48.193321,30.047123 47.972790,33.179394 47.972790,35.684757 
	C56.409451,37.152374 65.128281,38.669079 73.928680,40.553688 
z"/>
<path fill="#C12C64" opacity="1.000000" stroke="none" 
	d="
M157.574066,45.888336 
	C155.290878,46.035957 152.624207,46.082253 149.960205,46.017479 
	C138.810394,45.746365 127.909073,46.592258 118.129333,52.783882 
	C117.753212,53.022007 117.162201,52.920712 116.290436,52.962597 
	C128.522034,43.970604 142.663101,43.743790 157.574066,45.888336 
z"/>
<path fill="#98204D" opacity="1.000000" stroke="none" 
	d="
M119.635307,168.107208 
	C119.641510,173.097626 119.241043,178.285248 119.067360,183.480438 
	C119.037460,184.374924 119.971786,185.301636 120.800827,186.128235 
	C120.383469,188.279678 119.626007,190.516357 118.863419,192.751160 
	C116.098442,187.635178 116.259880,178.808121 119.635307,168.107208 
z"/>
<path fill="#CEF8FB" opacity="1.000000" stroke="none" 
	d="
M54.970840,50.780178 
	C63.777737,47.715382 72.816254,49.395313 82.052048,52.539387 
	C73.370453,52.166775 64.421852,51.525223 54.970840,50.780178 
z"/>
<path fill="#CEF8FB" opacity="1.000000" stroke="none" 
	d="
M91.048691,57.337822 
	C92.174896,57.263290 93.349174,57.529259 95.939651,58.115993 
	C94.239723,55.389927 93.112724,53.582634 91.954704,51.415604 
	C96.882774,53.197968 99.403351,57.753632 98.062675,63.172092 
	C95.598488,61.228676 93.347626,59.453499 91.048691,57.337822 
z"/>
<path fill="#CD356E" opacity="1.000000" stroke="none" 
	d="
M157.757050,20.684916 
	C157.995239,21.304014 158.243561,22.255672 157.921478,22.938120 
	C154.598022,29.980236 156.372742,36.768932 158.693939,43.940487 
	C153.504013,36.741570 153.688568,28.901449 157.757050,20.684916 
z"/>
<path fill="#E9FBFD" opacity="1.000000" stroke="none" 
	d="
M20.072453,115.241615 
	C24.009838,118.688446 27.910593,122.509148 31.943787,126.636734 
	C25.987499,125.373314 22.592453,120.939964 20.072453,115.241615 
z"/>
<path fill="#CEF8FB" opacity="1.000000" stroke="none" 
	d="
M30.862610,87.019760 
	C30.230160,84.905243 29.678188,82.332947 29.050350,79.345856 
	C29.725534,75.666908 30.476583,72.402748 31.489689,68.860573 
	C31.482191,74.575691 31.212637,80.568832 30.862610,87.019760 
z"/>
<path fill="#E9FBFD" opacity="1.000000" stroke="none" 
	d="
M97.127464,166.994263 
	C100.099579,169.491684 103.047890,172.358353 106.080643,175.552979 
	C103.144608,173.041779 100.124130,170.202667 97.127464,166.994263 
z"/>
<path fill="#E9FBFD" opacity="1.000000" stroke="none" 
	d="
M8.214469,96.152817 
	C10.230435,99.222992 12.140607,102.695320 14.118319,106.516190 
	C9.762232,104.841614 8.759422,100.802063 8.214469,96.152817 
z"/>
<path fill="#E9FBFD" opacity="1.000000" stroke="none" 
	d="
M108.048294,179.319931 
	C109.076927,180.997101 110.073540,183.095215 111.095718,185.548309 
	C106.704582,185.553070 108.387070,182.129684 108.048294,179.319931 
z"/>
<path fill="#E9FBFD" opacity="1.000000" stroke="none" 
	d="
M42.637070,133.974487 
	C42.962494,134.065247 43.014240,134.503708 43.040073,134.722839 
	C41.072990,133.836151 39.080074,132.730347 37.079102,131.258453 
	C38.817909,131.889496 40.564777,132.886612 42.637070,133.974487 
z"/>
<path fill="#E9FBFD" opacity="1.000000" stroke="none" 
	d="
M12.057790,49.322456 
	C13.261155,49.602257 14.486377,50.263439 15.984694,51.071995 
	C15.060999,52.242073 14.396737,53.083523 13.441815,54.048668 
	C12.793985,52.682858 12.436816,51.193348 12.057790,49.322456 
z"/>
<path fill="#CEF8FB" opacity="1.000000" stroke="none" 
	d="
M47.335487,52.978081 
	C48.405220,52.315079 49.866112,51.688976 51.677940,51.106159 
	C50.594807,51.771286 49.160732,52.393131 47.335487,52.978081 
z"/>
<path fill="#E9FBFD" opacity="1.000000" stroke="none" 
	d="
M14.097528,107.213455 
	C15.078694,107.999847 16.012058,109.163589 16.999569,110.647110 
	C16.052387,109.841522 15.051056,108.716164 14.097528,107.213455 
z"/>
<path fill="#E9FBFD" opacity="1.000000" stroke="none" 
	d="
M33.108906,128.216583 
	C34.349583,128.674774 35.586166,129.506622 36.961174,130.630981 
	C35.768002,130.145721 34.436405,129.367966 33.108906,128.216583 
z"/>
<path fill="#E9FBFD" opacity="1.000000" stroke="none" 
	d="
M68.199280,149.114670 
	C69.400757,149.261093 70.590286,149.795151 71.961945,150.603271 
	C70.825172,150.418991 69.506256,149.960648 68.199280,149.114670 
z"/>
<path fill="#E9FBFD" opacity="1.000000" stroke="none" 
	d="
M72.129303,151.213409 
	C73.287613,151.376083 74.467873,151.912140 75.834160,152.716660 
	C74.730537,152.519028 73.440895,152.052902 72.129303,151.213409 
z"/>
<path fill="#E9FBFD" opacity="1.000000" stroke="none" 
	d="
M61.082870,145.283569 
	C62.221474,145.442093 63.407284,145.964554 64.786942,146.749023 
	C63.697224,146.556519 62.413651,146.102020 61.082870,145.283569 
z"/>
<path fill="#CEF8FB" opacity="1.000000" stroke="none" 
	d="
M83.066696,53.421131 
	C84.265846,53.477863 85.538033,53.898239 87.011459,54.593224 
	C85.855049,54.506813 84.497383,54.145794 83.066696,53.421131 
z"/>
<path fill="#98204D" opacity="1.000000" stroke="none" 
	d="
M126.335754,175.919281 
	C126.600624,174.846252 127.134636,173.582870 128.045914,172.285126 
	C127.817078,173.410156 127.210983,174.569550 126.335754,175.919281 
z"/>
<path fill="#E9FBFD" opacity="1.000000" stroke="none" 
	d="
M65.053947,147.374298 
	C65.956100,147.422684 66.920059,147.829269 68.058342,148.501892 
	C67.193695,148.422791 66.154724,148.077637 65.053947,147.374298 
z"/>
<path fill="#E9FBFD" opacity="1.000000" stroke="none" 
	d="
M17.949959,112.480530 
	C18.623743,112.852180 19.314072,113.576324 20.074268,114.599495 
	C19.418259,114.210022 18.692383,113.521515 17.949959,112.480530 
z"/>
<path fill="#E9FBFD" opacity="1.000000" stroke="none" 
	d="
M50.080536,139.320251 
	C51.030613,139.388412 52.038223,139.835251 53.245903,140.553558 
	C52.343334,140.449677 51.240700,140.074326 50.080536,139.320251 
z"/>
<path fill="#98204D" opacity="1.000000" stroke="none" 
	d="
M123.517876,181.071182 
	C123.730263,179.964935 124.217880,178.665039 125.062012,177.285110 
	C124.876724,178.429230 124.334915,179.653381 123.517876,181.071182 
z"/>
<path fill="#E9FBFD" opacity="1.000000" stroke="none" 
	d="
M43.099777,135.309875 
	C44.040936,135.384628 45.027649,135.835587 46.201294,136.562668 
	C45.307262,136.454544 44.226299,136.070312 43.099777,135.309875 
z"/>
<path fill="#E9FBFD" opacity="1.000000" stroke="none" 
	d="
M76.065567,153.339859 
	C76.966576,153.410645 77.921074,153.840317 79.037430,154.544327 
	C78.172539,154.445343 77.145790,154.072052 76.065567,153.339859 
z"/>
<path fill="#E9FBFD" opacity="1.000000" stroke="none" 
	d="
M86.100464,159.252838 
	C86.998421,159.364136 87.925140,159.840118 89.003021,160.594406 
	C88.145859,160.454315 87.137535,160.035904 86.100464,159.252838 
z"/>
<path fill="#E9FBFD" opacity="1.000000" stroke="none" 
	d="
M89.127815,161.200745 
	C90.022537,161.335083 90.930267,161.836700 91.983017,162.618408 
	C91.132294,162.455002 90.136559,162.011520 89.127815,161.200745 
z"/>
<path fill="#E9FBFD" opacity="1.000000" stroke="none" 
	d="
M92.108765,163.222687 
	C92.977348,163.384735 93.863708,163.904739 94.884163,164.707306 
	C94.054352,164.520126 93.090454,164.050385 92.108765,163.222687 
z"/>
<path fill="#E9FBFD" opacity="1.000000" stroke="none" 
	d="
M106.090080,176.215485 
	C106.763107,176.662262 107.398102,177.480164 108.069870,178.614349 
	C107.421783,178.149277 106.736916,177.367935 106.090080,176.215485 
z"/>
<path fill="#CEF8FB" opacity="1.000000" stroke="none" 
	d="
M43.957230,14.715679 
	C43.305595,14.260178 42.688934,13.445495 42.026558,12.320648 
	C42.651299,12.792489 43.321747,13.574493 43.957230,14.715679 
z"/>
<path fill="#CEF8FB" opacity="1.000000" stroke="none" 
	d="
M89.850670,48.815670 
	C88.976578,48.643864 88.107315,48.112751 87.109161,47.299309 
	C87.938683,47.496780 88.897087,47.976574 89.850670,48.815670 
z"/>
<path fill="#CEF8FB" opacity="1.000000" stroke="none" 
	d="
M86.940926,46.668518 
	C86.059158,46.561768 85.133423,46.102840 84.058418,45.367165 
	C84.905090,45.499062 85.901016,45.907703 86.940926,46.668518 
z"/>
<path fill="#CEF8FB" opacity="1.000000" stroke="none" 
	d="
M78.949478,42.436867 
	C78.008644,42.472446 76.973900,42.148979 75.701172,41.591133 
	C76.593987,41.597111 77.724770,41.837467 78.949478,42.436867 
z"/>
<path fill="#CEF8FB" opacity="1.000000" stroke="none" 
	d="
M40.408043,57.039742 
	C40.822975,56.370102 41.588684,55.701508 42.667366,55.000992 
	C42.239834,55.659641 41.499329,56.350208 40.408043,57.039742 
z"/>
<path fill="#CEF8FB" opacity="1.000000" stroke="none" 
	d="
M45.131771,54.140839 
	C45.431156,53.573460 45.893600,53.248047 46.651962,52.928905 
	C46.396866,53.417717 45.845848,53.900257 45.131771,54.140839 
z"/>
<path fill="#E9FBFD" opacity="1.000000" stroke="none" 
	d="
M79.143501,155.090851 
	C79.701591,154.971008 80.235283,155.166611 80.909286,155.614456 
	C80.406105,155.713226 79.762604,155.559753 79.143501,155.090851 
z"/>
<path fill="#98204D" opacity="1.000000" stroke="none" 
	d="
M121.344315,185.920624 
	C121.285507,185.210114 121.495491,184.298279 122.057953,183.278076 
	C122.144661,184.019577 121.878883,184.869461 121.344315,185.920624 
z"/>
<path fill="#CEF8FB" opacity="1.000000" stroke="none" 
	d="
M30.978825,3.543283 
	C30.513494,3.775144 29.994423,3.705358 29.266827,3.469814 
	C29.046320,3.095723 29.034338,2.887391 29.015163,2.366787 
	C29.647009,2.450222 30.286047,2.845928 30.978825,3.543283 
z"/>
<path fill="#98204D" opacity="1.000000" stroke="none" 
	d="
M135.634583,162.276917 
	C135.764542,161.692474 136.172073,160.975403 136.906372,160.178131 
	C136.792801,160.780045 136.352478,161.462173 135.634583,162.276917 
z"/>
<path fill="#98204D" opacity="1.000000" stroke="none" 
	d="
M129.363922,171.001801 
	C129.314011,170.554108 129.527817,169.952255 130.075424,169.281311 
	C130.148697,169.757339 129.888153,170.302490 129.363922,171.001801 
z"/>
<path fill="#CEF8FB" opacity="1.000000" stroke="none" 
	d="
M81.809570,43.788986 
	C81.390656,43.904671 80.807442,43.749714 80.047577,43.342129 
	C80.462379,43.232452 81.053825,43.375401 81.809570,43.788986 
z"/>
<path fill="#98204D" opacity="1.000000" stroke="none" 
	d="
M134.347290,163.994431 
	C134.317169,163.546783 134.549698,162.955139 135.122543,162.333099 
	C135.178558,162.818619 134.894241,163.334534 134.347290,163.994431 
z"/>
<path fill="#98204D" opacity="1.000000" stroke="none" 
	d="
M131.391449,168.036911 
	C131.345337,167.577072 131.565277,166.972382 132.131439,166.333588 
	C132.204300,166.830353 131.930908,167.361206 131.391449,168.036911 
z"/>
<path fill="#CEF8FB" opacity="1.000000" stroke="none" 
	d="
M33.819389,4.756329 
	C33.406258,4.868158 32.831421,4.709332 32.071407,4.307444 
	C32.476715,4.204813 33.067204,4.345244 33.819389,4.756329 
z"/>
<path fill="#CEF8FB" opacity="1.000000" stroke="none" 
	d="
M32.258492,67.834427 
	C32.156883,67.427971 32.316662,66.866020 32.729805,66.141129 
	C32.828739,66.545097 32.674309,67.112015 32.258492,67.834427 
z"/>
<path fill="#98204D" opacity="1.000000" stroke="none" 
	d="
M139.267166,157.900116 
	C139.256500,157.471542 139.508835,156.903885 140.087906,156.288116 
	C140.119812,156.746994 139.824997,157.253998 139.267166,157.900116 
z"/>
<path fill="#CEF8FB" opacity="1.000000" stroke="none" 
	d="
M83.804131,44.828667 
	C83.382988,44.923775 82.826797,44.737480 82.108597,44.298603 
	C82.520760,44.213100 83.094917,44.380180 83.804131,44.828667 
z"/>
<path fill="#CEF8FB" opacity="1.000000" stroke="none" 
	d="
M44.956993,16.807560 
	C44.593494,16.639261 44.259426,16.151363 43.917343,15.358133 
	C44.268364,15.531187 44.627392,16.009573 44.956993,16.807560 
z"/>
<path fill="#98204D" opacity="1.000000" stroke="none" 
	d="
M122.556938,183.108521 
	C122.432556,182.648132 122.561745,182.004379 123.025772,181.250977 
	C123.177246,181.735931 122.993874,182.330536 122.556938,183.108521 
z"/>
<path fill="#98204D" opacity="1.000000" stroke="none" 
	d="
M137.356262,160.113861 
	C137.277023,159.902786 137.458466,159.582932 137.898148,159.150543 
	C137.976578,159.360367 137.796753,159.682724 137.356262,160.113861 
z"/>
<path fill="#98204D" opacity="1.000000" stroke="none" 
	d="
M140.502548,156.255981 
	C140.417542,156.000397 140.625626,155.641647 141.148575,155.203033 
	C141.240845,155.466370 141.018234,155.809616 140.502548,156.255981 
z"/>
<path fill="#98204D" opacity="1.000000" stroke="none" 
	d="
M133.417206,165.170624 
	C133.310623,164.944946 133.466736,164.609344 133.885513,164.161041 
	C133.992081,164.385803 133.835999,164.723267 133.417206,165.170624 
z"/>
<path fill="#E9FBFD" opacity="1.000000" stroke="none" 
	d="
M95.133331,165.221832 
	C95.333626,165.126999 95.660614,165.272720 96.102524,165.669266 
	C95.898300,165.767517 95.579163,165.614960 95.133331,165.221832 
z"/>
<path fill="#98204D" opacity="1.000000" stroke="none" 
	d="
M132.587570,166.277313 
	C132.456772,166.032913 132.583694,165.671280 133.003662,165.223526 
	C133.146255,165.478287 132.995773,165.819183 132.587570,166.277313 
z"/>
<path fill="#98204D" opacity="1.000000" stroke="none" 
	d="
M130.510117,169.230820 
	C130.386185,168.998901 130.520660,168.645920 130.928680,168.182495 
	C131.057678,168.417953 130.913101,168.763855 130.510117,169.230820 
z"/>
<path fill="#98204D" opacity="1.000000" stroke="none" 
	d="
M128.526703,172.232208 
	C128.392776,172.002594 128.514282,171.647766 128.903000,171.173477 
	C129.040848,171.404999 128.911499,171.755997 128.526703,172.232208 
z"/>
<path fill="#CEF8FB" opacity="1.000000" stroke="none" 
	d="
M45.791710,19.115162 
	C45.547550,19.108660 45.330460,18.826519 45.136368,18.269367 
	C45.379169,18.276077 45.598972,18.557800 45.791710,19.115162 
z"/>
<path fill="#98204D" opacity="1.000000" stroke="none" 
	d="
M125.517868,177.221100 
	C125.376526,176.993942 125.489220,176.643082 125.858017,176.164642 
	C126.000046,176.390488 125.885979,176.743942 125.517868,177.221100 
z"/>
<path fill="#CEF8FB" opacity="1.000000" stroke="none" 
	d="
M88.095047,55.400242 
	C88.359077,55.081394 88.646339,55.193123 88.942154,55.758049 
	C88.703926,55.983845 88.426437,55.857040 88.095047,55.400242 
z"/>
<path fill="#CEF8FB" opacity="1.000000" stroke="none" 
	d="
M33.226738,65.833084 
	C33.078724,65.626816 33.179958,65.263710 33.520592,64.737015 
	C33.665321,64.941040 33.570656,65.308640 33.226738,65.833084 
z"/>
<path fill="#CEF8FB" opacity="1.000000" stroke="none" 
	d="
M31.728165,90.236885 
	C31.478077,90.212875 31.276896,89.899124 31.104683,89.298615 
	C31.348125,89.323616 31.562597,89.635376 31.728165,90.236885 
z"/>
<path fill="#CEF8FB" opacity="1.000000" stroke="none" 
	d="
M34.321053,63.884632 
	C34.210777,63.691727 34.327705,63.377102 34.679321,62.946819 
	C34.792095,63.141747 34.670174,63.452328 34.321053,63.884632 
z"/>
<path fill="#CEF8FB" opacity="1.000000" stroke="none" 
	d="
M37.301010,59.923264 
	C37.217152,59.725025 37.356152,59.426250 37.743221,59.059067 
	C37.958725,59.337257 37.802917,59.614613 37.301010,59.923264 
z"/>
<path fill="#CEF8FB" opacity="1.000000" stroke="none" 
	d="
M39.236351,57.924885 
	C39.173096,57.715816 39.344551,57.429703 39.772587,57.101288 
	C39.954502,57.400742 39.768467,57.663689 39.236351,57.924885 
z"/>
<path fill="#E9FBFD" opacity="1.000000" stroke="none" 
	d="
M17.095310,111.175163 
	C17.290878,111.140320 17.550957,111.339722 17.842503,111.791016 
	C17.557137,111.920547 17.319088,111.709381 17.095310,111.175163 
z"/>
<path fill="#CEF8FB" opacity="1.000000" stroke="none" 
	d="
M36.895340,6.718071 
	C36.696136,6.825854 36.376572,6.696109 35.938358,6.327950 
	C36.138130,6.219872 36.456558,6.350208 36.895340,6.718071 
z"/>
<path fill="#CEF8FB" opacity="1.000000" stroke="none" 
	d="
M90.095505,56.470421 
	C90.337799,56.143261 90.619316,56.234169 90.915131,56.776115 
	C90.688812,57.002029 90.423904,56.889137 90.095505,56.470421 
z"/>
<path fill="#E9FBFD" opacity="1.000000" stroke="none" 
	d="
M32.139587,127.165627 
	C32.352592,127.077065 32.664745,127.237625 33.067020,127.653679 
	C32.851006,127.744362 32.544868,127.579559 32.139587,127.165627 
z"/>
<path fill="#CD356E" opacity="1.000000" stroke="none" 
	d="
M158.619781,44.592361 
	C158.825287,44.539261 159.054703,44.666492 159.108063,44.894150 
	C158.932022,44.994576 158.643692,44.772697 158.619781,44.592361 
z"/>
<path fill="#E9FBFD" opacity="1.000000" stroke="none" 
	d="
M47.149525,137.353973 
	C47.331474,137.243683 47.654877,137.344864 48.100708,137.680252 
	C47.912422,137.798126 47.601704,137.681778 47.149525,137.353973 
z"/>
<path fill="#C12C64" opacity="1.000000" stroke="none" 
	d="
M115.694641,52.958393 
	C115.731613,53.188465 115.488411,53.472336 114.959755,53.794434 
	C114.921028,53.559174 115.167747,53.285683 115.694641,52.958393 
z"/>
<path fill="#E9FBFD" opacity="1.000000" stroke="none" 
	d="
M54.163010,141.328339 
	C54.352581,141.204346 54.696804,141.302002 55.181595,141.638336 
	C54.987324,141.768005 54.652493,141.659012 54.163010,141.328339 
z"/>
<path fill="#E9FBFD" opacity="1.000000" stroke="none" 
	d="
M56.159126,142.368637 
	C56.340199,142.251755 56.668560,142.342377 57.122391,142.666031 
	C56.934044,142.791428 56.620228,142.683792 56.159126,142.368637 
z"/>
<path fill="#E9FBFD" opacity="1.000000" stroke="none" 
	d="
M58.150726,143.418640 
	C58.320381,143.312714 58.627377,143.403168 59.052235,143.714935 
	C58.831711,143.951004 58.537701,143.843948 58.150726,143.418640 
z"/>
<path fill="#CEF8FB" opacity="1.000000" stroke="none" 
	d="
M91.871483,50.825935 
	C91.656929,50.906765 91.362457,50.736172 90.986824,50.314964 
	C91.200966,50.234406 91.496262,50.404461 91.871483,50.825935 
z"/>
<path fill="#CEF8FB" opacity="1.000000" stroke="none" 
	d="
M90.849472,49.841888 
	C90.628113,49.943520 90.317307,49.792027 89.917122,49.389805 
	C90.138504,49.288971 90.449272,49.438866 90.849472,49.841888 
z"/>
<path fill="#E9FBFD" opacity="1.000000" stroke="none" 
	d="
M83.157593,157.240173 
	C83.361603,157.116409 83.721863,157.236298 84.230484,157.608124 
	C84.023842,157.734634 83.668846,157.609222 83.157593,157.240173 
z"/>
<path fill="#E9FBFD" opacity="1.000000" stroke="none" 
	d="
M85.135712,158.366150 
	C85.314240,158.265305 85.618118,158.366272 86.019760,158.698395 
	C85.780312,158.931534 85.494827,158.810989 85.135712,158.366150 
z"/>
<path fill="#CEF8FB" opacity="1.000000" stroke="none" 
	d="
M26.725250,2.662098 
	C25.270351,3.004371 23.563091,3.081407 21.429745,3.117666 
	C22.826736,2.850213 24.649813,2.623537 26.725250,2.662098 
z"/>
<path fill="#CEF8FB" opacity="1.000000" stroke="none" 
	d="
M13.023170,6.177026 
	C13.061965,6.401369 12.818747,6.673815 12.304826,7.014441 
	C12.269801,6.796791 12.505479,6.510961 13.023170,6.177026 
z"/>
<path fill="#CEF8FB" opacity="1.000000" stroke="none" 
	d="
M7.735067,11.118285 
	C7.820972,11.302296 7.677780,11.611352 7.301895,12.042570 
	C7.214792,11.857597 7.360381,11.550465 7.735067,11.118285 
z"/>
<path fill="#CEF8FB" opacity="1.000000" stroke="none" 
	d="
M19.285496,3.255716 
	C19.263355,3.491831 18.937004,3.703360 18.311804,3.908573 
	C18.335732,3.678547 18.658508,3.454839 19.285496,3.255716 
z"/>
</svg>